# xmcd
#
# Track frame offsets:
#	150
#	13612
#	27572
#	41630
#
# Disc length: 734 seconds
#
# Revision: 1
# Processed by: cddbd v1.5.2PL0 Copyright (c) Steve Scherf et al.
# Submitted via: dBpowerAMP V4.0
#
DISCID=2b02dc04
DTITLE=Emerson Drive - I Should Be Sleeping
DYEAR=2002
DGENRE=Country
TTITLE0=I Should Be Sleeping (Album Version)
TTITLE1=I Should Be Sleeping (Acoustic Mix)
TTITLE2=I Should Be Sleeping (3 a.m. Mix)
TTITLE3=Hollywood Kiss (Album Version)
EXTD=Corrected capitalization.
EXTT0=
EXTT1=
EXTT2=
EXTT3=
PLAYORDER=
